<?xml version="1.0" encoding="UTF-8"?>
<svg id="_图层_2" data-name="图层 2" xmlns="http://www.w3.org/2000/svg" viewBox="0 0 76.9 59.15">
  <defs>
    <style>
      .cls-1 {
        fill: #c11920;
      }

      .cls-2 {
        fill: #dead25;
      }
    </style>
  </defs>
  <g id="_图层_1-2" data-name="图层 1">
    <path class="cls-1" d="M.38,22.83c.87,2.14,3.27,6.69,7.48,5,.7-.28,1.33-.72,1.88-1.23L38.45,0v30.54l-27.57,26.17c-.5.48-1.31,1.08-2.03,1.53-1.89,1.17-6.53,1.75-8.15-1.69-.53-1.14-.7-2.5-.7-3.57v-30.07c0-.22.3-.28.38-.08Z"/>
    <path class="cls-2" d="M38.45,21.78s2.42,8.23,7.85,6.04c.7-.28,1.33-.72,1.88-1.23L76.9,0v30.54l-27.57,26.17c-.5.48-1.31,1.08-2.03,1.53-1.89,1.17-6.53,1.75-8.15-1.69-.53-1.14-.7-2.5-.7-3.57v-31.19Z"/>
  </g>
</svg>